<svg width="24" height="25" viewBox="0 0 24 25" fill="none" xmlns="http://www.w3.org/2000/svg">
<path d="M15.25 6.5C15.25 8.29493 13.7949 9.75 12 9.75C10.2051 9.75 8.75 8.29493 8.75 6.5C8.75 4.70507 10.2051 3.25 12 3.25C13.7949 3.25 15.25 4.70507 15.25 6.5Z" stroke="#9070D8" stroke-width="1.5"/>
<path d="M18.25 17.5C18.25 18.5756 17.6409 19.6202 16.5138 20.4252C15.3882 21.2293 13.7947 21.75 12 21.75C10.2053 21.75 8.61181 21.2293 7.48618 20.4252C6.35911 19.6202 5.75 18.5756 5.75 17.5C5.75 16.4244 6.35911 15.3798 7.48618 14.5748C8.61181 13.7707 10.2053 13.25 12 13.25C13.7947 13.25 15.3882 13.7707 16.5138 14.5748C17.6409 15.3798 18.25 16.4244 18.25 17.5Z" stroke="#9070D8" stroke-width="1.5"/>
</svg>
