<svg width="16" height="16" viewBox="0 0 16 16" fill="none" xmlns="http://www.w3.org/2000/svg">
<rect x="4" y="6" width="1.84615" height="1.75" rx="0.875" fill="#292D32"/>
<rect x="4" y="9.58398" width="1.84615" height="1.75" rx="0.875" fill="#292D32"/>
<rect x="7.07715" y="6" width="1.84615" height="1.75" rx="0.875" fill="#292D32"/>
<rect x="7.07715" y="9.58398" width="1.84615" height="1.75" rx="0.875" fill="#292D32"/>
<rect x="10.1543" y="6" width="1.84615" height="1.75" rx="0.875" fill="#292D32"/>
<path d="M5.33301 1.33398V3.33398" stroke="#292D32" stroke-width="1.25" stroke-miterlimit="10" stroke-linecap="round" stroke-linejoin="round"/>
<path d="M10.667 1.33398V3.33398" stroke="#292D32" stroke-width="1.25" stroke-miterlimit="10" stroke-linecap="round" stroke-linejoin="round"/>
<path d="M14 5.66732V11.334C14 13.334 13 14.6673 10.6667 14.6673H5.33333C3 14.6673 2 13.334 2 11.334V5.66732C2 3.66732 3 2.33398 5.33333 2.33398H10.6667C13 2.33398 14 3.66732 14 5.66732Z" stroke="#292D32" stroke-width="1.25" stroke-miterlimit="10" stroke-linecap="round" stroke-linejoin="round"/>
</svg>
