<svg width="50" height="64" viewBox="0 0 50 64" fill="none" xmlns="http://www.w3.org/2000/svg">
<path d="M33.4395 36.9741C33.8375 36.9378 34.2356 36.9015 34.6156 36.829C34.2356 36.8834 33.8375 36.9378 33.4395 36.9741Z" fill="#9070D8"/>
<path d="M49.0367 51.7056C49.0367 58.2187 43.7711 63.4981 37.2751 63.4981H11.6892C5.22937 63.4981 0 58.255 0 51.7782V14.151C3.38371 26.6329 14.0958 35.7222 26.9249 37.0103H14.5662V46.0452C14.5662 49.1657 17.0995 51.7056 20.2118 51.7056H49.0367Z" fill="#9070D8"/>
<path d="M47.8605 0V0.362846C47.8605 6.67637 42.7578 11.7925 36.4608 11.7925H14.5662V25.5807H43.9701C43.9701 31.0959 40.0436 35.8311 34.6333 36.8289C34.2352 36.8833 33.8552 36.9378 33.4571 36.9741C33.1676 36.9922 32.8781 37.0103 32.5886 37.0103H26.9611C14.0958 35.7222 3.38371 26.6329 0 14.151V11.5022C0 5.15242 5.1208 0 11.472 0H47.8605Z" fill="url(#paint0_linear_112_3783)"/>
<defs>
<linearGradient id="paint0_linear_112_3783" x1="13.3573" y1="27.1734" x2="36.32" y2="4.27099" gradientUnits="userSpaceOnUse">
<stop stop-color="#DFB2D0"/>
<stop offset="1" stop-color="#9070D8"/>
</linearGradient>
</defs>
</svg>
