<svg width="20" height="20" viewBox="0 0 20 20" fill="none" xmlns="http://www.w3.org/2000/svg">
<path fill-rule="evenodd" clip-rule="evenodd" d="M8.58683 15.6367C8.14939 15.6367 7.81675 16.0445 8.04558 16.4172C8.44858 17.0738 9.17317 17.5117 10.0001 17.5117C10.8269 17.5117 11.5515 17.0738 11.9546 16.4172C12.1834 16.0445 11.8507 15.6367 11.4133 15.6367C11.1349 15.6367 10.8958 15.8201 10.6865 16.0036C10.5032 16.1643 10.263 16.2617 10.0001 16.2617C9.73708 16.2617 9.49692 16.1643 9.31358 16.0036C9.10433 15.8201 8.86517 15.6367 8.58683 15.6367Z" fill="white"/>
<mask id="mask0_71_1100" style="mask-type:alpha" maskUnits="userSpaceOnUse" x="2" y="1" width="16" height="14">
<path fill-rule="evenodd" clip-rule="evenodd" d="M16.2501 9.04168C16.2501 6.5514 15.014 4.2235 12.951 2.82863L11.8672 2.09578C10.7392 1.33315 9.26092 1.33315 8.13299 2.09578L7.04914 2.82862C4.98617 4.2235 3.75008 6.55139 3.75008 9.04168V10.6366C3.23862 11.0943 2.91675 11.7596 2.91675 12.5C2.91675 13.8808 4.03604 15 5.41675 15H14.5834C15.9642 15 17.0834 13.8808 17.0834 12.5C17.0834 11.7596 16.7615 11.0943 16.2501 10.6366V9.04168Z" fill="white"/>
</mask>
<g mask="url(#mask0_71_1100)">
<path d="M12.951 2.82863L12.2508 3.86413L12.951 2.82863ZM16.2501 9.04168H17.5001H16.2501ZM11.8672 2.09578L12.5673 1.06027L11.8672 2.09578ZM8.13299 2.09578L7.43284 1.06027L8.13299 2.09578ZM7.04914 2.82862L7.7493 3.86413L7.04914 2.82862ZM3.75008 9.04168H5.00008H3.75008ZM3.75008 10.6366L4.58372 11.568L5.00008 11.1953V10.6366H3.75008ZM16.2501 10.6366H15.0001V11.1953L15.4164 11.568L16.2501 10.6366ZM12.2508 3.86413C13.97 5.02653 15.0001 6.96644 15.0001 9.04168H17.5001C17.5001 6.13634 16.058 3.42047 13.6512 1.79311L12.2508 3.86413ZM11.167 3.13128L12.2508 3.86413L13.6512 1.79311L12.5673 1.06027L11.167 3.13128ZM8.83317 3.13128C9.53808 2.65464 10.4621 2.65464 11.167 3.13128L12.5673 1.06027C11.0164 0.011649 8.98375 0.0116487 7.43284 1.06027L8.83317 3.13128ZM7.7493 3.86413L8.83317 3.13128L7.43284 1.06027L6.34898 1.79311L7.7493 3.86413ZM5.00008 9.04168C5.00008 6.96644 6.03015 5.02653 7.7493 3.86413L6.34898 1.79311C3.94217 3.42047 2.50008 6.13634 2.50008 9.04168H5.00008ZM5.00008 10.6366V9.04168H2.50008V10.6366H5.00008ZM4.16675 12.5C4.16675 12.1299 4.326 11.7987 4.58372 11.568L2.91644 9.70518C2.15125 10.39 1.66675 11.3893 1.66675 12.5H4.16675ZM5.41675 13.75C4.72639 13.75 4.16675 13.1903 4.16675 12.5H1.66675C1.66675 14.5711 3.34568 16.25 5.41675 16.25V13.75ZM14.5834 13.75H5.41675V16.25H14.5834V13.75ZM15.8334 12.5C15.8334 13.1903 15.2737 13.75 14.5834 13.75V16.25C16.6545 16.25 18.3334 14.5711 18.3334 12.5H15.8334ZM15.4164 11.568C15.6742 11.7987 15.8334 12.1299 15.8334 12.5H18.3334C18.3334 11.3893 17.8489 10.39 17.0837 9.70518L15.4164 11.568ZM15.0001 9.04168V10.6366H17.5001V9.04168H15.0001Z" fill="white"/>
</g>
</svg>
